# xmcd
#
# Track frame offsets: 
#        150
#        18323
#        41589
#        52519
#        65013
#        90234
#
# Disc length: 1420 seconds
#
# Revision: 0
# Processed by: cddbd v1.5.2PL0 Copyright (c) Steve Scherf et al.
# Submitted via: ExactAudioCopy v0.99pb5
#
DISCID=3b058a06
DTITLE=Karoliina Kantelinen - Ellös huolta huomisesta
DYEAR=2008
DGENRE=Folk
TTITLE0=Soittelen Soutusalmen suorimaista
TTITLE1=Veda Vellamo venetta
TTITLE2=Mäkätys
TTITLE3=Loattesijoilla
TTITLE4=Zsoisätön
TTITLE5=Ellös huolta huomisesta
EXTD=
EXTT0=
EXTT1=
EXTT2=
EXTT3=
EXTT4=
EXTT5=
PLAYORDER=
